<mxfile host="65bd71144e">
    <diagram id="-fCDnszZvT-cv6adM1qY" name="第1頁">
        <mxGraphModel dx="878" dy="613" grid="1" gridSize="10" guides="1" tooltips="1" connect="1" arrows="1" fold="1" page="1" pageScale="1" pageWidth="827" pageHeight="1169" math="0" shadow="0">
            <root>
                <mxCell id="0"/>
                <mxCell id="1" parent="0"/>
                <mxCell id="2" value="Modification and deletion" style="shape=umlFrame;whiteSpace=wrap;html=1;width=80;height=40;boundedLbl=1;verticalAlign=middle;align=left;spacingLeft=5;" vertex="1" parent="1">
                    <mxGeometry x="130" y="610" width="620" height="300" as="geometry"/>
                </mxCell>
                <mxCell id="3" value="Add" style="shape=umlFrame;whiteSpace=wrap;html=1;width=50;height=30;boundedLbl=1;verticalAlign=middle;align=left;spacingLeft=5;" vertex="1" parent="1">
                    <mxGeometry x="130" y="290" width="620" height="300" as="geometry"/>
                </mxCell>
                <mxCell id="4" value="&lt;font style=&quot;font-size: 19px;&quot;&gt;APP&lt;/font&gt;" style="rounded=0;whiteSpace=wrap;html=1;fillColor=#9EA1F0;strokeColor=#10739e;" vertex="1" parent="1">
                    <mxGeometry x="550" y="210" width="80" height="40" as="geometry"/>
                </mxCell>
                <mxCell id="5" value="" style="endArrow=none;dashed=1;html=1;" edge="1" parent="1">
                    <mxGeometry width="50" height="50" relative="1" as="geometry">
                        <mxPoint x="420" y="910" as="sourcePoint"/>
                        <mxPoint x="420" y="250" as="targetPoint"/>
                    </mxGeometry>
                </mxCell>
                <mxCell id="7" value="" style="endArrow=classic;html=1;startArrow=none;" edge="1" parent="1" source="9">
                    <mxGeometry width="50" height="50" relative="1" as="geometry">
                        <mxPoint x="267.5" y="330" as="sourcePoint"/>
                        <mxPoint x="580" y="330" as="targetPoint"/>
                    </mxGeometry>
                </mxCell>
                <mxCell id="8" value="" style="endArrow=none;html=1;" edge="1" parent="1" target="9">
                    <mxGeometry width="50" height="50" relative="1" as="geometry">
                        <mxPoint x="267.4999999999998" y="330" as="sourcePoint"/>
                        <mxPoint x="587.4999999999998" y="330" as="targetPoint"/>
                    </mxGeometry>
                </mxCell>
                <mxCell id="9" value="&amp;lt;Announce&amp;gt;" style="text;html=1;strokeColor=none;fillColor=none;align=center;verticalAlign=middle;whiteSpace=wrap;rounded=0;" vertex="1" parent="1">
                    <mxGeometry x="460" y="315" width="70" height="30" as="geometry"/>
                </mxCell>
                <mxCell id="12" value="" style="endArrow=none;dashed=1;html=1;" edge="1" parent="1">
                    <mxGeometry width="50" height="50" relative="1" as="geometry">
                        <mxPoint x="270" y="910" as="sourcePoint"/>
                        <mxPoint x="269.9999999999998" y="250" as="targetPoint"/>
                    </mxGeometry>
                </mxCell>
                <mxCell id="13" value="Committee" style="shape=umlActor;verticalLabelPosition=bottom;verticalAlign=top;html=1;outlineConnect=0;" vertex="1" parent="1">
                    <mxGeometry x="260" y="190" width="30" height="60" as="geometry"/>
                </mxCell>
                <mxCell id="14" value="Householder" style="shape=umlActor;verticalLabelPosition=bottom;verticalAlign=top;html=1;outlineConnect=0;" vertex="1" parent="1">
                    <mxGeometry x="400" y="190" width="30" height="60" as="geometry"/>
                </mxCell>
                <mxCell id="15" value="" style="endArrow=classic;html=1;startArrow=none;entryX=-0.146;entryY=0.36;entryDx=0;entryDy=0;entryPerimeter=0;" edge="1" parent="1" source="17">
                    <mxGeometry width="50" height="50" relative="1" as="geometry">
                        <mxPoint x="421" y="495" as="sourcePoint"/>
                        <mxPoint x="580.31" y="494.8399999999999" as="targetPoint"/>
                    </mxGeometry>
                </mxCell>
                <mxCell id="16" value="" style="endArrow=none;html=1;" edge="1" parent="1" target="17">
                    <mxGeometry width="50" height="50" relative="1" as="geometry">
                        <mxPoint x="421" y="495" as="sourcePoint"/>
                        <mxPoint x="581" y="495" as="targetPoint"/>
                    </mxGeometry>
                </mxCell>
                <mxCell id="17" value="&amp;lt;response&amp;gt;" style="text;html=1;strokeColor=none;fillColor=none;align=center;verticalAlign=middle;whiteSpace=wrap;rounded=0;" vertex="1" parent="1">
                    <mxGeometry x="468" y="480" width="70" height="30" as="geometry"/>
                </mxCell>
                <mxCell id="18" value="" style="endArrow=block;startArrow=none;endFill=0;startFill=0;endSize=8;html=1;verticalAlign=bottom;dashed=1;labelBackgroundColor=none;entryX=0.177;entryY=0.48;entryDx=0;entryDy=0;entryPerimeter=0;exitX=0.116;exitY=0.467;exitDx=0;exitDy=0;exitPerimeter=0;" edge="1" parent="1" source="20" target="3">
                    <mxGeometry width="160" relative="1" as="geometry">
                        <mxPoint x="580" y="434" as="sourcePoint"/>
                        <mxPoint x="270" y="434" as="targetPoint"/>
                    </mxGeometry>
                </mxCell>
                <mxCell id="19" value="" style="endArrow=none;startArrow=none;endFill=0;startFill=0;endSize=8;html=1;verticalAlign=bottom;dashed=1;labelBackgroundColor=none;exitX=0.062;exitY=0.827;exitDx=0;exitDy=0;exitPerimeter=0;entryX=0.834;entryY=0.508;entryDx=0;entryDy=0;entryPerimeter=0;" edge="1" parent="1" target="20">
                    <mxGeometry width="160" relative="1" as="geometry">
                        <mxPoint x="583.4300000000001" y="435.4849999999999" as="sourcePoint"/>
                        <mxPoint x="270" y="434" as="targetPoint"/>
                    </mxGeometry>
                </mxCell>
                <mxCell id="20" value="&amp;lt;response success or failure&amp;gt;" style="text;html=1;strokeColor=none;fillColor=none;align=center;verticalAlign=middle;whiteSpace=wrap;rounded=0;" vertex="1" parent="1">
                    <mxGeometry x="299" y="420" width="181" height="30" as="geometry"/>
                </mxCell>
                <mxCell id="21" value="" style="endArrow=block;startArrow=none;endFill=0;startFill=0;endSize=8;html=1;verticalAlign=bottom;dashed=1;labelBackgroundColor=none;" edge="1" parent="1">
                    <mxGeometry width="160" relative="1" as="geometry">
                        <mxPoint x="450" y="524" as="sourcePoint"/>
                        <mxPoint x="420" y="524" as="targetPoint"/>
                    </mxGeometry>
                </mxCell>
                <mxCell id="22" value="" style="endArrow=none;startArrow=none;endFill=0;startFill=0;endSize=8;html=1;verticalAlign=bottom;dashed=1;labelBackgroundColor=none;" edge="1" parent="1">
                    <mxGeometry width="160" relative="1" as="geometry">
                        <mxPoint x="580" y="523" as="sourcePoint"/>
                        <mxPoint x="560" y="523" as="targetPoint"/>
                    </mxGeometry>
                </mxCell>
                <mxCell id="23" value="&amp;lt;response success or failure&amp;gt;" style="text;html=1;strokeColor=none;fillColor=none;align=center;verticalAlign=middle;whiteSpace=wrap;rounded=0;" vertex="1" parent="1">
                    <mxGeometry x="450" y="517" width="110" height="30" as="geometry"/>
                </mxCell>
                <mxCell id="24" value="" style="endArrow=open;startArrow=none;endFill=0;startFill=0;endSize=8;html=1;verticalAlign=bottom;labelBackgroundColor=none;strokeWidth=1;exitX=0.92;exitY=0.5;exitDx=0;exitDy=0;exitPerimeter=0;" edge="1" parent="1" source="26">
                    <mxGeometry width="160" relative="1" as="geometry">
                        <mxPoint x="270" y="646" as="sourcePoint"/>
                        <mxPoint x="580" y="646" as="targetPoint"/>
                    </mxGeometry>
                </mxCell>
                <mxCell id="25" value="" style="endArrow=none;startArrow=none;endFill=0;startFill=0;endSize=8;html=1;verticalAlign=bottom;labelBackgroundColor=none;strokeWidth=1;entryX=0.115;entryY=0.5;entryDx=0;entryDy=0;entryPerimeter=0;" edge="1" parent="1" target="26">
                    <mxGeometry width="160" relative="1" as="geometry">
                        <mxPoint x="270" y="646" as="sourcePoint"/>
                        <mxPoint x="580" y="646" as="targetPoint"/>
                    </mxGeometry>
                </mxCell>
                <mxCell id="26" value="&amp;lt;modification&amp;gt;" style="text;html=1;strokeColor=none;fillColor=none;align=center;verticalAlign=middle;whiteSpace=wrap;rounded=0;" vertex="1" parent="1">
                    <mxGeometry x="450" y="631" width="87" height="30" as="geometry"/>
                </mxCell>
                <mxCell id="27" value="" style="endArrow=block;startArrow=none;endFill=0;startFill=0;endSize=8;html=1;verticalAlign=bottom;dashed=1;labelBackgroundColor=none;entryX=0.177;entryY=0.267;entryDx=0;entryDy=0;entryPerimeter=0;" edge="1" parent="1" source="29" target="2">
                    <mxGeometry width="160" relative="1" as="geometry">
                        <mxPoint x="580" y="690" as="sourcePoint"/>
                        <mxPoint x="270" y="690" as="targetPoint"/>
                    </mxGeometry>
                </mxCell>
                <mxCell id="28" value="" style="endArrow=none;startArrow=none;endFill=0;startFill=0;endSize=8;html=1;verticalAlign=bottom;dashed=1;labelBackgroundColor=none;" edge="1" parent="1" target="29">
                    <mxGeometry width="160" relative="1" as="geometry">
                        <mxPoint x="580" y="690" as="sourcePoint"/>
                        <mxPoint x="270" y="690" as="targetPoint"/>
                    </mxGeometry>
                </mxCell>
                <mxCell id="29" value="&amp;lt;modification&amp;nbsp;success or failure&amp;gt;" style="text;html=1;strokeColor=none;fillColor=none;align=center;verticalAlign=middle;whiteSpace=wrap;rounded=0;" vertex="1" parent="1">
                    <mxGeometry x="300" y="675" width="180" height="30" as="geometry"/>
                </mxCell>
                <mxCell id="30" value="" style="endArrow=open;startArrow=none;endFill=0;startFill=0;endSize=8;html=1;verticalAlign=bottom;labelBackgroundColor=none;strokeWidth=1;entryX=-0.122;entryY=0.085;entryDx=0;entryDy=0;entryPerimeter=0;exitX=0.914;exitY=0.517;exitDx=0;exitDy=0;exitPerimeter=0;" edge="1" parent="1" source="32">
                    <mxGeometry width="160" relative="1" as="geometry">
                        <mxPoint x="536" y="780" as="sourcePoint"/>
                        <mxPoint x="580.6700000000001" y="780.5" as="targetPoint"/>
                    </mxGeometry>
                </mxCell>
                <mxCell id="31" value="" style="endArrow=none;startArrow=none;endFill=0;startFill=0;endSize=8;html=1;verticalAlign=bottom;labelBackgroundColor=none;strokeWidth=1;entryX=0.2;entryY=0.5;entryDx=0;entryDy=0;entryPerimeter=0;" edge="1" parent="1" target="32">
                    <mxGeometry width="160" relative="1" as="geometry">
                        <mxPoint x="269" y="780" as="sourcePoint"/>
                        <mxPoint x="579" y="780" as="targetPoint"/>
                    </mxGeometry>
                </mxCell>
                <mxCell id="32" value="&amp;lt;deletion&amp;gt;" style="text;html=1;strokeColor=none;fillColor=none;align=center;verticalAlign=middle;whiteSpace=wrap;rounded=0;" vertex="1" parent="1">
                    <mxGeometry x="466" y="765" width="70" height="30" as="geometry"/>
                </mxCell>
                <mxCell id="33" value="" style="endArrow=block;startArrow=none;endFill=0;startFill=0;endSize=8;html=1;verticalAlign=bottom;dashed=1;labelBackgroundColor=none;entryX=0.177;entryY=0.733;entryDx=0;entryDy=0;entryPerimeter=0;exitX=0.116;exitY=0.497;exitDx=0;exitDy=0;exitPerimeter=0;" edge="1" parent="1" source="35" target="2">
                    <mxGeometry width="160" relative="1" as="geometry">
                        <mxPoint x="579" y="837" as="sourcePoint"/>
                        <mxPoint x="269" y="830" as="targetPoint"/>
                    </mxGeometry>
                </mxCell>
                <mxCell id="34" value="" style="endArrow=none;startArrow=none;endFill=0;startFill=0;endSize=8;html=1;verticalAlign=bottom;dashed=1;labelBackgroundColor=none;exitX=0.1;exitY=0.86;exitDx=0;exitDy=0;exitPerimeter=0;entryX=0.89;entryY=0.516;entryDx=0;entryDy=0;entryPerimeter=0;" edge="1" parent="1" target="35">
                    <mxGeometry width="160" relative="1" as="geometry">
                        <mxPoint x="584" y="831" as="sourcePoint"/>
                        <mxPoint x="269" y="837" as="targetPoint"/>
                    </mxGeometry>
                </mxCell>
                <mxCell id="35" value="&amp;lt;deletion&amp;nbsp;success or failure&amp;gt;" style="text;html=1;strokeColor=none;fillColor=none;align=center;verticalAlign=middle;whiteSpace=wrap;rounded=0;" vertex="1" parent="1">
                    <mxGeometry x="299" y="815" width="181" height="30" as="geometry"/>
                </mxCell>
                <mxCell id="38" value="" style="endArrow=classic;html=1;startArrow=none;entryX=-0.005;entryY=0.278;entryDx=0;entryDy=0;entryPerimeter=0;exitX=0.857;exitY=0.51;exitDx=0;exitDy=0;exitPerimeter=0;" edge="1" parent="1" source="40">
                    <mxGeometry width="50" height="50" relative="1" as="geometry">
                        <mxPoint x="540" y="405" as="sourcePoint"/>
                        <mxPoint x="582.425" y="405.28999999999996" as="targetPoint"/>
                    </mxGeometry>
                </mxCell>
                <mxCell id="39" value="" style="endArrow=none;html=1;" edge="1" parent="1" target="40">
                    <mxGeometry width="50" height="50" relative="1" as="geometry">
                        <mxPoint x="270" y="405" as="sourcePoint"/>
                        <mxPoint x="597.4999999999998" y="405" as="targetPoint"/>
                        <Array as="points">
                            <mxPoint x="400" y="405"/>
                        </Array>
                    </mxGeometry>
                </mxCell>
                <mxCell id="40" value="&amp;lt;response&amp;gt;" style="text;html=1;strokeColor=none;fillColor=none;align=center;verticalAlign=middle;whiteSpace=wrap;rounded=0;" vertex="1" parent="1">
                    <mxGeometry x="470" y="390" width="70" height="30" as="geometry"/>
                </mxCell>
                <mxCell id="41" value="" style="endArrow=block;startArrow=none;endFill=0;startFill=0;endSize=8;html=1;verticalAlign=bottom;dashed=1;labelBackgroundColor=none;entryX=0.177;entryY=0.217;entryDx=0;entryDy=0;entryPerimeter=0;" edge="1" parent="1" source="43" target="3">
                    <mxGeometry width="160" relative="1" as="geometry">
                        <mxPoint x="580" y="355" as="sourcePoint"/>
                        <mxPoint x="270" y="355" as="targetPoint"/>
                    </mxGeometry>
                </mxCell>
                <mxCell id="42" value="" style="endArrow=none;startArrow=none;endFill=0;startFill=0;endSize=8;html=1;verticalAlign=bottom;dashed=1;labelBackgroundColor=none;exitX=0;exitY=0.75;exitDx=0;exitDy=0;entryX=0.881;entryY=0.503;entryDx=0;entryDy=0;entryPerimeter=0;" edge="1" parent="1" target="43">
                    <mxGeometry width="160" relative="1" as="geometry">
                        <mxPoint x="582.5" y="356.25" as="sourcePoint"/>
                        <mxPoint x="270" y="355" as="targetPoint"/>
                    </mxGeometry>
                </mxCell>
                <mxCell id="47" value="" style="rounded=0;whiteSpace=wrap;html=1;fontSize=29;fillColor=#A1C3FF;strokeColor=#36393d;" vertex="1" parent="1">
                    <mxGeometry x="580" y="631" width="27.5" height="62" as="geometry"/>
                </mxCell>
                <mxCell id="43" value="&amp;lt;declare success or failure&amp;gt;" style="text;html=1;strokeColor=none;fillColor=none;align=center;verticalAlign=middle;whiteSpace=wrap;rounded=0;" vertex="1" parent="1">
                    <mxGeometry x="299" y="341" width="160" height="30" as="geometry"/>
                </mxCell>
                <mxCell id="58" value="" style="endArrow=none;dashed=1;html=1;" edge="1" parent="1">
                    <mxGeometry width="50" height="50" relative="1" as="geometry">
                        <mxPoint x="593" y="911" as="sourcePoint"/>
                        <mxPoint x="592.9999999999998" y="251" as="targetPoint"/>
                    </mxGeometry>
                </mxCell>
                <mxCell id="59" value="" style="edgeStyle=none;html=1;fontSize=19;" edge="1" parent="1" source="49" target="47">
                    <mxGeometry relative="1" as="geometry"/>
                </mxCell>
                <mxCell id="49" value="" style="rounded=0;whiteSpace=wrap;html=1;fontSize=29;fillColor=#99C2FF;strokeColor=#36393d;" vertex="1" parent="1">
                    <mxGeometry x="581" y="484" width="27.5" height="62" as="geometry"/>
                </mxCell>
                <mxCell id="50" value="" style="rounded=0;whiteSpace=wrap;html=1;fontSize=29;fillColor=#A1C3FF;strokeColor=#36393d;" vertex="1" parent="1">
                    <mxGeometry x="580" y="389" width="27.5" height="62" as="geometry"/>
                </mxCell>
                <mxCell id="55" value="" style="rounded=0;whiteSpace=wrap;html=1;fontSize=29;fillColor=#99C2FF;strokeColor=#36393d;" vertex="1" parent="1">
                    <mxGeometry x="580" y="309" width="27.5" height="62" as="geometry"/>
                </mxCell>
                <mxCell id="57" value="" style="rounded=0;whiteSpace=wrap;html=1;fontSize=29;fillColor=#A1C3FF;strokeColor=#36393d;" vertex="1" parent="1">
                    <mxGeometry x="581" y="770" width="27.5" height="62" as="geometry"/>
                </mxCell>
            </root>
        </mxGraphModel>
    </diagram>
</mxfile>